<svg xmlns="http://www.w3.org/2000/svg" viewBox="0 0 32 32">
  <defs>
    <linearGradient id="bg" x1="0" y1="0" x2="1" y2="1">
      <stop offset="0%" stop-color="#4a90d9"/>
      <stop offset="100%" stop-color="#357abd"/>
    </linearGradient>
  </defs>
  <rect width="32" height="32" rx="6" fill="url(#bg)"/>
  <path d="M8 8h12a2 2 0 0 1 2 2v14a2 2 0 0 1-2 2H8a2 2 0 0 1-2-2V10a2 2 0 0 1 2-2z" fill="#fff" opacity="0.95"/>
  <path d="M10 10h8v1H10zm0 3h8v1H10zm0 3h6v1H10zm0 3h8v1H10z" fill="#4a90d9" opacity="0.3"/>
  <circle cx="23" cy="9" r="4" fill="none" stroke="#fff" stroke-width="1.8"/>
  <line x1="26" y1="12" x2="28.5" y2="14.5" stroke="#fff" stroke-width="1.8" stroke-linecap="round"/>
</svg>
